M48
; DRILL file {KiCad 9.0.7} date 2026-03-03T00:42:22+0545
; FORMAT={-:-/ absolute / metric / decimal}
; #@! TF.CreationDate,2026-03-03T00:42:22+05:45
; #@! TF.GenerationSoftware,Kicad,Pcbnew,9.0.7
; #@! TF.FileFunction,Plated,1,2,PTH
FMAT,2
METRIC
; #@! TA.AperFunction,Plated,PTH,ComponentDrill
T1C1.000
; #@! TA.AperFunction,Plated,PTH,ComponentDrill
T2C1.500
%
G90
G05
T1
X142.5Y-73.26
X142.5Y-75.8
X142.5Y-78.34
X142.5Y-80.88
X142.5Y-83.42
X142.5Y-85.96
X142.5Y-88.5
X157.75Y-73.26
X157.75Y-75.8
X157.75Y-78.34
X157.75Y-80.88
X157.75Y-83.42
X157.75Y-85.96
X157.75Y-88.5
T2
X136.366Y-104.616
X136.525Y-123.984
X142.716Y-102.076
X142.875Y-121.444
X155.734Y-104.616
X157.162Y-123.825
X162.084Y-102.076
X163.512Y-121.285
M30
