%TF.GenerationSoftware,KiCad,Pcbnew,9.0.7*%
%TF.CreationDate,2026-03-03T00:41:45+05:45*%
%TF.ProjectId,heckclub,6865636b-636c-4756-922e-6b696361645f,rev?*%
%TF.SameCoordinates,Original*%
%TF.FileFunction,Paste,Bot*%
%TF.FilePolarity,Positive*%
%FSLAX46Y46*%
G04 Gerber Fmt 4.6, Leading zero omitted, Abs format (unit mm)*
G04 Created by KiCad (PCBNEW 9.0.7) date 2026-03-03 00:41:45*
%MOMM*%
%LPD*%
G01*
G04 APERTURE LIST*
G04 Aperture macros list*
%AMRoundRect*
0 Rectangle with rounded corners*
0 $1 Rounding radius*
0 $2 $3 $4 $5 $6 $7 $8 $9 X,Y pos of 4 corners*
0 Add a 4 corners polygon primitive as box body*
4,1,4,$2,$3,$4,$5,$6,$7,$8,$9,$2,$3,0*
0 Add four circle primitives for the rounded corners*
1,1,$1+$1,$2,$3*
1,1,$1+$1,$4,$5*
1,1,$1+$1,$6,$7*
1,1,$1+$1,$8,$9*
0 Add four rect primitives between the rounded corners*
20,1,$1+$1,$2,$3,$4,$5,0*
20,1,$1+$1,$4,$5,$6,$7,0*
20,1,$1+$1,$6,$7,$8,$9,0*
20,1,$1+$1,$8,$9,$2,$3,0*%
G04 Aperture macros list end*
%ADD10RoundRect,0.082000X-0.718000X0.328000X-0.718000X-0.328000X0.718000X-0.328000X0.718000X0.328000X0*%
%TA.AperFunction,SMDPad,CuDef*%
%ADD11RoundRect,0.082000X-0.718000X0.328000X-0.718000X-0.328000X0.718000X-0.328000X0.718000X0.328000X0*%
%TD*%
%TA.AperFunction,ComponentPad*%
%ADD12C,2.200000*%
%TD*%
%TA.AperFunction,ComponentPad*%
%ADD13R,3.500000X1.700000*%
%TD*%
%TA.AperFunction,ComponentPad*%
%ADD14O,3.600000X1.700000*%
%TD*%
%TA.AperFunction,ComponentPad*%
%ADD15O,3.700000X1.700000*%
%TD*%
%TA.AperFunction,Conductor*%
%ADD16C,0.200000*%
%TD*%
%ADD17C,1.700000*%
%ADD18C,4.000000*%
%ADD19C,2.200000*%
%ADD20R,3.500000X1.700000*%
%ADD21O,3.600000X1.700000*%
%ADD22O,3.700000X1.700000*%
%ADD23C,0.100000*%
%ADD24C,0.200000*%
%ADD25C,0.150000*%
%ADD26C,0.101600*%
%ADD27C,0.120000*%
%ADD28C,0.127000*%
%ADD29C,0.254000*%
%ADD30C,0.025400*%
G04 APERTURE END LIST*
D10*
%TO.C,D2*%
X164087501Y-89634658D03*
X164087501Y-91134658D03*
X169287501Y-91134658D03*
X169287501Y-89634658D03*
%TD*%
%TO.C,D1*%
X130531250Y-89634658D03*
X130531250Y-91134658D03*
X135731250Y-91134658D03*
X135731250Y-89634658D03*
%TD*%
D11*
%TO.P,D2,1,VDD*%
%TO.N,+5V*%
X164087501Y-89634658D03*
%TO.P,D2,2,DOUT*%
%TO.N,unconnected-(D2-DOUT-Pad2)*%
X164087501Y-91134658D03*
%TO.P,D2,3,VSS*%
%TO.N,GND*%
X169287501Y-91134658D03*
%TO.P,D2,4,DIN*%
%TO.N,Net-(D1-DOUT)*%
X169287501Y-89634658D03*
%TD*%
D12*
%TO.P,SW3,1,1*%
%TO.N,Net-(U1-PA10_A2_D2)*%
X142875000Y-121443750D03*
%TO.P,SW3,2,2*%
%TO.N,GND*%
X136525000Y-123983750D03*
%TD*%
%TO.P,SW2,1,1*%
%TO.N,Net-(U1-PA4_A1_D1)*%
X162083750Y-102076250D03*
%TO.P,SW2,2,2*%
%TO.N,GND*%
X155733750Y-104616250D03*
%TD*%
D11*
%TO.P,D1,1,VDD*%
%TO.N,+5V*%
X130531250Y-89634658D03*
%TO.P,D1,2,DOUT*%
%TO.N,Net-(D1-DOUT)*%
X130531250Y-91134658D03*
%TO.P,D1,3,VSS*%
%TO.N,GND*%
X135731250Y-91134658D03*
%TO.P,D1,4,DIN*%
%TO.N,Net-(D1-DIN)*%
X135731250Y-89634658D03*
%TD*%
D12*
%TO.P,SW1,1,1*%
%TO.N,Net-(U1-PA02_A0_D0)*%
X142716250Y-102076250D03*
%TO.P,SW1,2,2*%
%TO.N,GND*%
X136366250Y-104616250D03*
%TD*%
D13*
%TO.P,U1,1,PA02_A0_D0*%
%TO.N,Net-(U1-PA02_A0_D0)*%
X141500000Y-73260000D03*
D14*
%TO.P,U1,2,PA4_A1_D1*%
%TO.N,Net-(U1-PA4_A1_D1)*%
X141500000Y-75800000D03*
%TO.P,U1,3,PA10_A2_D2*%
%TO.N,Net-(U1-PA10_A2_D2)*%
X141500000Y-78340000D03*
%TO.P,U1,4,PA11_A3_D3*%
%TO.N,Net-(U1-PA11_A3_D3)*%
X141500000Y-80880000D03*
%TO.P,U1,5,PA8_A4_D4_SDA*%
%TO.N,unconnected-(U1-PA8_A4_D4_SDA-Pad5)*%
X141500000Y-83420000D03*
%TO.P,U1,6,PA9_A5_D5_SCL*%
%TO.N,unconnected-(U1-PA9_A5_D5_SCL-Pad6)*%
X141500000Y-85960000D03*
%TO.P,U1,7,PB08_A6_D6_TX*%
%TO.N,unconnected-(U1-PB08_A6_D6_TX-Pad7)*%
X141500000Y-88500000D03*
%TO.P,U1,8,PB09_A7_D7_RX*%
%TO.N,unconnected-(U1-PB09_A7_D7_RX-Pad8)*%
X158750000Y-88500000D03*
%TO.P,U1,9,PA7_A8_D8_SCK*%
%TO.N,unconnected-(U1-PA7_A8_D8_SCK-Pad9)*%
X158750000Y-85960000D03*
%TO.P,U1,10,PA5_A9_D9_MISO*%
%TO.N,Net-(D1-DIN)*%
X158750000Y-83420000D03*
D15*
%TO.P,U1,11,PA6_A10_D10_MOSI*%
%TO.N,unconnected-(U1-PA6_A10_D10_MOSI-Pad11)*%
X158750000Y-80880000D03*
%TO.P,U1,12,3V3*%
%TO.N,unconnected-(U1-3V3-Pad12)*%
X158750000Y-78340000D03*
%TO.P,U1,13,GND*%
%TO.N,GND*%
X158750000Y-75800000D03*
%TO.P,U1,14,5V*%
%TO.N,+5V*%
X158750000Y-73260000D03*
%TD*%
D12*
%TO.P,SW4,1,1*%
%TO.N,Net-(U1-PA11_A3_D3)*%
X163512500Y-121285000D03*
%TO.P,SW4,2,2*%
%TO.N,GND*%
X157162500Y-123825000D03*
%TD*%
D16*
%TO.N,GND*%
X135731250Y-90487500D02*
X136366250Y-91122500D01*
X157562436Y-104616250D02*
X155733750Y-104616250D01*
X136366250Y-91122500D02*
X136366250Y-104616250D01*
X169287501Y-91134658D02*
X169287501Y-92891185D01*
X169287501Y-92891185D02*
X157562436Y-104616250D01*
X135731250Y-91134658D02*
X135731250Y-90487500D01*
%TO.N,Net-(D1-DOUT)*%
X170388501Y-116390313D02*
X163505438Y-109507250D01*
X139202434Y-109507250D02*
X130531250Y-100836066D01*
X169287501Y-89634658D02*
X169377415Y-89634658D01*
X130531250Y-100836066D02*
X130531250Y-91134658D01*
X170388501Y-90645744D02*
X170388501Y-116390313D01*
X169377415Y-89634658D02*
X170388501Y-90645744D01*
X163505438Y-109507250D02*
X139202434Y-109507250D01*
%TO.N,Net-(D1-DIN)*%
X139500000Y-91500000D02*
X149670000Y-91500000D01*
X137634658Y-89634658D02*
X139500000Y-91500000D01*
X135731250Y-89634658D02*
X137634658Y-89634658D01*
X149670000Y-91500000D02*
X157750000Y-83420000D01*
%TO.N,+5V*%
X130719662Y-89446246D02*
X130691726Y-89377760D01*
X156599000Y-74411000D02*
X157750000Y-73260000D01*
X158837760Y-73260000D02*
X157750000Y-73260000D01*
X130531250Y-83328750D02*
X139449000Y-74411000D01*
X130531250Y-89634658D02*
X130531250Y-83328750D01*
X164087501Y-78509741D02*
X158837760Y-73260000D01*
X130531250Y-89634658D02*
X130719662Y-89446246D01*
X139449000Y-74411000D02*
X156599000Y-74411000D01*
X164087501Y-89634658D02*
X164087501Y-78509741D01*
%TD*%
D10*
%TO.C,D2*%
X164087501Y-89634658D03*
X164087501Y-91134658D03*
X169287501Y-91134658D03*
X169287501Y-89634658D03*
%TD*%
D17*
%TO.C,SW3*%
X135255000Y-126523750D03*
D18*
X140335000Y-126523750D03*
D17*
X145415000Y-126523750D03*
D19*
X142875000Y-121443750D03*
X136525000Y-123983750D03*
%TD*%
D17*
%TO.C,SW2*%
X154463750Y-107156250D03*
D18*
X159543750Y-107156250D03*
D17*
X164623750Y-107156250D03*
D19*
X162083750Y-102076250D03*
X155733750Y-104616250D03*
%TD*%
D10*
%TO.C,D1*%
X130531250Y-89634658D03*
X130531250Y-91134658D03*
X135731250Y-91134658D03*
X135731250Y-89634658D03*
%TD*%
D17*
%TO.C,SW1*%
X135096250Y-107156250D03*
D18*
X140176250Y-107156250D03*
D17*
X145256250Y-107156250D03*
D19*
X142716250Y-102076250D03*
X136366250Y-104616250D03*
%TD*%
D20*
%TO.C,U1*%
X141500000Y-73260000D03*
D21*
X141500000Y-75800000D03*
X141500000Y-78340000D03*
X141500000Y-80880000D03*
X141500000Y-83420000D03*
X141500000Y-85960000D03*
X141500000Y-88500000D03*
X158750000Y-88500000D03*
X158750000Y-85960000D03*
X158750000Y-83420000D03*
D22*
X158750000Y-80880000D03*
X158750000Y-78340000D03*
X158750000Y-75800000D03*
X158750000Y-73260000D03*
%TD*%
D17*
%TO.C,SW4*%
X155892500Y-126365000D03*
D18*
X160972500Y-126365000D03*
D17*
X166052500Y-126365000D03*
D19*
X163512500Y-121285000D03*
X157162500Y-123825000D03*
%TD*%
D23*
%TO.C,D2*%
X170887501Y-92284658D02*
X169987501Y-92284658D01*
X170887501Y-91384658D01*
X170887501Y-92284658D01*
G36*
X170887501Y-92284658D02*
G01*
X169987501Y-92284658D01*
X170887501Y-91384658D01*
X170887501Y-92284658D01*
G37*
%TO.C,D1*%
X137331250Y-92284658D02*
X136431250Y-92284658D01*
X137331250Y-91384658D01*
X137331250Y-92284658D01*
G36*
X137331250Y-92284658D02*
G01*
X136431250Y-92284658D01*
X137331250Y-91384658D01*
X137331250Y-92284658D01*
G37*
%TD*%
D17*
%TO.C,SW3*%
X135255000Y-126523750D03*
D18*
X140335000Y-126523750D03*
D17*
X145415000Y-126523750D03*
D19*
X142875000Y-121443750D03*
X136525000Y-123983750D03*
%TD*%
D17*
%TO.C,SW2*%
X154463750Y-107156250D03*
D18*
X159543750Y-107156250D03*
D17*
X164623750Y-107156250D03*
D19*
X162083750Y-102076250D03*
X155733750Y-104616250D03*
%TD*%
D17*
%TO.C,SW1*%
X135096250Y-107156250D03*
D18*
X140176250Y-107156250D03*
D17*
X145256250Y-107156250D03*
D19*
X142716250Y-102076250D03*
X136366250Y-104616250D03*
%TD*%
D20*
%TO.C,U1*%
X141500000Y-73260000D03*
D21*
X141500000Y-75800000D03*
X141500000Y-78340000D03*
X141500000Y-80880000D03*
X141500000Y-83420000D03*
X141500000Y-85960000D03*
X141500000Y-88500000D03*
X158750000Y-88500000D03*
X158750000Y-85960000D03*
X158750000Y-83420000D03*
D22*
X158750000Y-80880000D03*
X158750000Y-78340000D03*
X158750000Y-75800000D03*
X158750000Y-73260000D03*
%TD*%
D17*
%TO.C,SW4*%
X155892500Y-126365000D03*
D18*
X160972500Y-126365000D03*
D17*
X166052500Y-126365000D03*
D19*
X163512500Y-121285000D03*
X157162500Y-123825000D03*
%TD*%
D24*
X165761905Y-90952219D02*
X165761905Y-89952219D01*
X165761905Y-89952219D02*
X166000000Y-89952219D01*
X166000000Y-89952219D02*
X166142857Y-89999838D01*
X166142857Y-89999838D02*
X166238095Y-90095076D01*
X166238095Y-90095076D02*
X166285714Y-90190314D01*
X166285714Y-90190314D02*
X166333333Y-90380790D01*
X166333333Y-90380790D02*
X166333333Y-90523647D01*
X166333333Y-90523647D02*
X166285714Y-90714123D01*
X166285714Y-90714123D02*
X166238095Y-90809361D01*
X166238095Y-90809361D02*
X166142857Y-90904600D01*
X166142857Y-90904600D02*
X166000000Y-90952219D01*
X166000000Y-90952219D02*
X165761905Y-90952219D01*
X166714286Y-90047457D02*
X166761905Y-89999838D01*
X166761905Y-89999838D02*
X166857143Y-89952219D01*
X166857143Y-89952219D02*
X167095238Y-89952219D01*
X167095238Y-89952219D02*
X167190476Y-89999838D01*
X167190476Y-89999838D02*
X167238095Y-90047457D01*
X167238095Y-90047457D02*
X167285714Y-90142695D01*
X167285714Y-90142695D02*
X167285714Y-90237933D01*
X167285714Y-90237933D02*
X167238095Y-90380790D01*
X167238095Y-90380790D02*
X166666667Y-90952219D01*
X166666667Y-90952219D02*
X167285714Y-90952219D01*
D25*
X139001667Y-119056950D02*
X139144524Y-119104569D01*
X139144524Y-119104569D02*
X139382619Y-119104569D01*
X139382619Y-119104569D02*
X139477857Y-119056950D01*
X139477857Y-119056950D02*
X139525476Y-119009330D01*
X139525476Y-119009330D02*
X139573095Y-118914092D01*
X139573095Y-118914092D02*
X139573095Y-118818854D01*
X139573095Y-118818854D02*
X139525476Y-118723616D01*
X139525476Y-118723616D02*
X139477857Y-118675997D01*
X139477857Y-118675997D02*
X139382619Y-118628378D01*
X139382619Y-118628378D02*
X139192143Y-118580759D01*
X139192143Y-118580759D02*
X139096905Y-118533140D01*
X139096905Y-118533140D02*
X139049286Y-118485521D01*
X139049286Y-118485521D02*
X139001667Y-118390283D01*
X139001667Y-118390283D02*
X139001667Y-118295045D01*
X139001667Y-118295045D02*
X139049286Y-118199807D01*
X139049286Y-118199807D02*
X139096905Y-118152188D01*
X139096905Y-118152188D02*
X139192143Y-118104569D01*
X139192143Y-118104569D02*
X139430238Y-118104569D01*
X139430238Y-118104569D02*
X139573095Y-118152188D01*
X139906429Y-118104569D02*
X140144524Y-119104569D01*
X140144524Y-119104569D02*
X140335000Y-118390283D01*
X140335000Y-118390283D02*
X140525476Y-119104569D01*
X140525476Y-119104569D02*
X140763572Y-118104569D01*
X141049286Y-118104569D02*
X141668333Y-118104569D01*
X141668333Y-118104569D02*
X141335000Y-118485521D01*
X141335000Y-118485521D02*
X141477857Y-118485521D01*
X141477857Y-118485521D02*
X141573095Y-118533140D01*
X141573095Y-118533140D02*
X141620714Y-118580759D01*
X141620714Y-118580759D02*
X141668333Y-118675997D01*
X141668333Y-118675997D02*
X141668333Y-118914092D01*
X141668333Y-118914092D02*
X141620714Y-119009330D01*
X141620714Y-119009330D02*
X141573095Y-119056950D01*
X141573095Y-119056950D02*
X141477857Y-119104569D01*
X141477857Y-119104569D02*
X141192143Y-119104569D01*
X141192143Y-119104569D02*
X141096905Y-119056950D01*
X141096905Y-119056950D02*
X141049286Y-119009330D01*
X158210417Y-99689450D02*
X158353274Y-99737069D01*
X158353274Y-99737069D02*
X158591369Y-99737069D01*
X158591369Y-99737069D02*
X158686607Y-99689450D01*
X158686607Y-99689450D02*
X158734226Y-99641830D01*
X158734226Y-99641830D02*
X158781845Y-99546592D01*
X158781845Y-99546592D02*
X158781845Y-99451354D01*
X158781845Y-99451354D02*
X158734226Y-99356116D01*
X158734226Y-99356116D02*
X158686607Y-99308497D01*
X158686607Y-99308497D02*
X158591369Y-99260878D01*
X158591369Y-99260878D02*
X158400893Y-99213259D01*
X158400893Y-99213259D02*
X158305655Y-99165640D01*
X158305655Y-99165640D02*
X158258036Y-99118021D01*
X158258036Y-99118021D02*
X158210417Y-99022783D01*
X158210417Y-99022783D02*
X158210417Y-98927545D01*
X158210417Y-98927545D02*
X158258036Y-98832307D01*
X158258036Y-98832307D02*
X158305655Y-98784688D01*
X158305655Y-98784688D02*
X158400893Y-98737069D01*
X158400893Y-98737069D02*
X158638988Y-98737069D01*
X158638988Y-98737069D02*
X158781845Y-98784688D01*
X159115179Y-98737069D02*
X159353274Y-99737069D01*
X159353274Y-99737069D02*
X159543750Y-99022783D01*
X159543750Y-99022783D02*
X159734226Y-99737069D01*
X159734226Y-99737069D02*
X159972322Y-98737069D01*
X160305655Y-98832307D02*
X160353274Y-98784688D01*
X160353274Y-98784688D02*
X160448512Y-98737069D01*
X160448512Y-98737069D02*
X160686607Y-98737069D01*
X160686607Y-98737069D02*
X160781845Y-98784688D01*
X160781845Y-98784688D02*
X160829464Y-98832307D01*
X160829464Y-98832307D02*
X160877083Y-98927545D01*
X160877083Y-98927545D02*
X160877083Y-99022783D01*
X160877083Y-99022783D02*
X160829464Y-99165640D01*
X160829464Y-99165640D02*
X160258036Y-99737069D01*
X160258036Y-99737069D02*
X160877083Y-99737069D01*
D24*
X132993154Y-87839719D02*
X132993154Y-86839719D01*
X132993154Y-86839719D02*
X133231249Y-86839719D01*
X133231249Y-86839719D02*
X133374106Y-86887338D01*
X133374106Y-86887338D02*
X133469344Y-86982576D01*
X133469344Y-86982576D02*
X133516963Y-87077814D01*
X133516963Y-87077814D02*
X133564582Y-87268290D01*
X133564582Y-87268290D02*
X133564582Y-87411147D01*
X133564582Y-87411147D02*
X133516963Y-87601623D01*
X133516963Y-87601623D02*
X133469344Y-87696861D01*
X133469344Y-87696861D02*
X133374106Y-87792100D01*
X133374106Y-87792100D02*
X133231249Y-87839719D01*
X133231249Y-87839719D02*
X132993154Y-87839719D01*
X134516963Y-87839719D02*
X133945535Y-87839719D01*
X134231249Y-87839719D02*
X134231249Y-86839719D01*
X134231249Y-86839719D02*
X134136011Y-86982576D01*
X134136011Y-86982576D02*
X134040773Y-87077814D01*
X134040773Y-87077814D02*
X133945535Y-87125433D01*
D25*
X138842917Y-99689450D02*
X138985774Y-99737069D01*
X138985774Y-99737069D02*
X139223869Y-99737069D01*
X139223869Y-99737069D02*
X139319107Y-99689450D01*
X139319107Y-99689450D02*
X139366726Y-99641830D01*
X139366726Y-99641830D02*
X139414345Y-99546592D01*
X139414345Y-99546592D02*
X139414345Y-99451354D01*
X139414345Y-99451354D02*
X139366726Y-99356116D01*
X139366726Y-99356116D02*
X139319107Y-99308497D01*
X139319107Y-99308497D02*
X139223869Y-99260878D01*
X139223869Y-99260878D02*
X139033393Y-99213259D01*
X139033393Y-99213259D02*
X138938155Y-99165640D01*
X138938155Y-99165640D02*
X138890536Y-99118021D01*
X138890536Y-99118021D02*
X138842917Y-99022783D01*
X138842917Y-99022783D02*
X138842917Y-98927545D01*
X138842917Y-98927545D02*
X138890536Y-98832307D01*
X138890536Y-98832307D02*
X138938155Y-98784688D01*
X138938155Y-98784688D02*
X139033393Y-98737069D01*
X139033393Y-98737069D02*
X139271488Y-98737069D01*
X139271488Y-98737069D02*
X139414345Y-98784688D01*
X139747679Y-98737069D02*
X139985774Y-99737069D01*
X139985774Y-99737069D02*
X140176250Y-99022783D01*
X140176250Y-99022783D02*
X140366726Y-99737069D01*
X140366726Y-99737069D02*
X140604822Y-98737069D01*
X141509583Y-99737069D02*
X140938155Y-99737069D01*
X141223869Y-99737069D02*
X141223869Y-98737069D01*
X141223869Y-98737069D02*
X141128631Y-98879926D01*
X141128631Y-98879926D02*
X141033393Y-98975164D01*
X141033393Y-98975164D02*
X140938155Y-99022783D01*
D26*
X149447666Y-82936985D02*
X149447666Y-83656652D01*
X149447666Y-83656652D02*
X149490000Y-83741318D01*
X149490000Y-83741318D02*
X149532333Y-83783652D01*
X149532333Y-83783652D02*
X149617000Y-83825985D01*
X149617000Y-83825985D02*
X149786333Y-83825985D01*
X149786333Y-83825985D02*
X149871000Y-83783652D01*
X149871000Y-83783652D02*
X149913333Y-83741318D01*
X149913333Y-83741318D02*
X149955666Y-83656652D01*
X149955666Y-83656652D02*
X149955666Y-82936985D01*
X150844666Y-83825985D02*
X150336666Y-83825985D01*
X150590666Y-83825985D02*
X150590666Y-82936985D01*
X150590666Y-82936985D02*
X150505999Y-83063985D01*
X150505999Y-83063985D02*
X150421333Y-83148652D01*
X150421333Y-83148652D02*
X150336666Y-83190985D01*
D25*
X148601191Y-80834819D02*
X149267857Y-81834819D01*
X149267857Y-80834819D02*
X148601191Y-81834819D01*
X149648810Y-81834819D02*
X149648810Y-80834819D01*
X150077381Y-81549104D02*
X150553571Y-81549104D01*
X149982143Y-81834819D02*
X150315476Y-80834819D01*
X150315476Y-80834819D02*
X150648809Y-81834819D01*
X151172619Y-80834819D02*
X151363095Y-80834819D01*
X151363095Y-80834819D02*
X151458333Y-80882438D01*
X151458333Y-80882438D02*
X151553571Y-80977676D01*
X151553571Y-80977676D02*
X151601190Y-81168152D01*
X151601190Y-81168152D02*
X151601190Y-81501485D01*
X151601190Y-81501485D02*
X151553571Y-81691961D01*
X151553571Y-81691961D02*
X151458333Y-81787200D01*
X151458333Y-81787200D02*
X151363095Y-81834819D01*
X151363095Y-81834819D02*
X151172619Y-81834819D01*
X151172619Y-81834819D02*
X151077381Y-81787200D01*
X151077381Y-81787200D02*
X150982143Y-81691961D01*
X150982143Y-81691961D02*
X150934524Y-81501485D01*
X150934524Y-81501485D02*
X150934524Y-81168152D01*
X150934524Y-81168152D02*
X150982143Y-80977676D01*
X150982143Y-80977676D02*
X151077381Y-80882438D01*
X151077381Y-80882438D02*
X151172619Y-80834819D01*
X145363095Y-79787200D02*
X145505952Y-79834819D01*
X145505952Y-79834819D02*
X145744047Y-79834819D01*
X145744047Y-79834819D02*
X145839285Y-79787200D01*
X145839285Y-79787200D02*
X145886904Y-79739580D01*
X145886904Y-79739580D02*
X145934523Y-79644342D01*
X145934523Y-79644342D02*
X145934523Y-79549104D01*
X145934523Y-79549104D02*
X145886904Y-79453866D01*
X145886904Y-79453866D02*
X145839285Y-79406247D01*
X145839285Y-79406247D02*
X145744047Y-79358628D01*
X145744047Y-79358628D02*
X145553571Y-79311009D01*
X145553571Y-79311009D02*
X145458333Y-79263390D01*
X145458333Y-79263390D02*
X145410714Y-79215771D01*
X145410714Y-79215771D02*
X145363095Y-79120533D01*
X145363095Y-79120533D02*
X145363095Y-79025295D01*
X145363095Y-79025295D02*
X145410714Y-78930057D01*
X145410714Y-78930057D02*
X145458333Y-78882438D01*
X145458333Y-78882438D02*
X145553571Y-78834819D01*
X145553571Y-78834819D02*
X145791666Y-78834819D01*
X145791666Y-78834819D02*
X145934523Y-78882438D01*
X146744047Y-79787200D02*
X146648809Y-79834819D01*
X146648809Y-79834819D02*
X146458333Y-79834819D01*
X146458333Y-79834819D02*
X146363095Y-79787200D01*
X146363095Y-79787200D02*
X146315476Y-79691961D01*
X146315476Y-79691961D02*
X146315476Y-79311009D01*
X146315476Y-79311009D02*
X146363095Y-79215771D01*
X146363095Y-79215771D02*
X146458333Y-79168152D01*
X146458333Y-79168152D02*
X146648809Y-79168152D01*
X146648809Y-79168152D02*
X146744047Y-79215771D01*
X146744047Y-79215771D02*
X146791666Y-79311009D01*
X146791666Y-79311009D02*
X146791666Y-79406247D01*
X146791666Y-79406247D02*
X146315476Y-79501485D01*
X147601190Y-79787200D02*
X147505952Y-79834819D01*
X147505952Y-79834819D02*
X147315476Y-79834819D01*
X147315476Y-79834819D02*
X147220238Y-79787200D01*
X147220238Y-79787200D02*
X147172619Y-79691961D01*
X147172619Y-79691961D02*
X147172619Y-79311009D01*
X147172619Y-79311009D02*
X147220238Y-79215771D01*
X147220238Y-79215771D02*
X147315476Y-79168152D01*
X147315476Y-79168152D02*
X147505952Y-79168152D01*
X147505952Y-79168152D02*
X147601190Y-79215771D01*
X147601190Y-79215771D02*
X147648809Y-79311009D01*
X147648809Y-79311009D02*
X147648809Y-79406247D01*
X147648809Y-79406247D02*
X147172619Y-79501485D01*
X148458333Y-79787200D02*
X148363095Y-79834819D01*
X148363095Y-79834819D02*
X148172619Y-79834819D01*
X148172619Y-79834819D02*
X148077381Y-79787200D01*
X148077381Y-79787200D02*
X148029762Y-79691961D01*
X148029762Y-79691961D02*
X148029762Y-79311009D01*
X148029762Y-79311009D02*
X148077381Y-79215771D01*
X148077381Y-79215771D02*
X148172619Y-79168152D01*
X148172619Y-79168152D02*
X148363095Y-79168152D01*
X148363095Y-79168152D02*
X148458333Y-79215771D01*
X148458333Y-79215771D02*
X148505952Y-79311009D01*
X148505952Y-79311009D02*
X148505952Y-79406247D01*
X148505952Y-79406247D02*
X148029762Y-79501485D01*
X149363095Y-79834819D02*
X149363095Y-78834819D01*
X149363095Y-79787200D02*
X149267857Y-79834819D01*
X149267857Y-79834819D02*
X149077381Y-79834819D01*
X149077381Y-79834819D02*
X148982143Y-79787200D01*
X148982143Y-79787200D02*
X148934524Y-79739580D01*
X148934524Y-79739580D02*
X148886905Y-79644342D01*
X148886905Y-79644342D02*
X148886905Y-79358628D01*
X148886905Y-79358628D02*
X148934524Y-79263390D01*
X148934524Y-79263390D02*
X148982143Y-79215771D01*
X148982143Y-79215771D02*
X149077381Y-79168152D01*
X149077381Y-79168152D02*
X149267857Y-79168152D01*
X149267857Y-79168152D02*
X149363095Y-79215771D01*
X150553572Y-79787200D02*
X150696429Y-79834819D01*
X150696429Y-79834819D02*
X150934524Y-79834819D01*
X150934524Y-79834819D02*
X151029762Y-79787200D01*
X151029762Y-79787200D02*
X151077381Y-79739580D01*
X151077381Y-79739580D02*
X151125000Y-79644342D01*
X151125000Y-79644342D02*
X151125000Y-79549104D01*
X151125000Y-79549104D02*
X151077381Y-79453866D01*
X151077381Y-79453866D02*
X151029762Y-79406247D01*
X151029762Y-79406247D02*
X150934524Y-79358628D01*
X150934524Y-79358628D02*
X150744048Y-79311009D01*
X150744048Y-79311009D02*
X150648810Y-79263390D01*
X150648810Y-79263390D02*
X150601191Y-79215771D01*
X150601191Y-79215771D02*
X150553572Y-79120533D01*
X150553572Y-79120533D02*
X150553572Y-79025295D01*
X150553572Y-79025295D02*
X150601191Y-78930057D01*
X150601191Y-78930057D02*
X150648810Y-78882438D01*
X150648810Y-78882438D02*
X150744048Y-78834819D01*
X150744048Y-78834819D02*
X150982143Y-78834819D01*
X150982143Y-78834819D02*
X151125000Y-78882438D01*
X151410715Y-79168152D02*
X151791667Y-79168152D01*
X151553572Y-78834819D02*
X151553572Y-79691961D01*
X151553572Y-79691961D02*
X151601191Y-79787200D01*
X151601191Y-79787200D02*
X151696429Y-79834819D01*
X151696429Y-79834819D02*
X151791667Y-79834819D01*
X152553572Y-79168152D02*
X152553572Y-79834819D01*
X152125001Y-79168152D02*
X152125001Y-79691961D01*
X152125001Y-79691961D02*
X152172620Y-79787200D01*
X152172620Y-79787200D02*
X152267858Y-79834819D01*
X152267858Y-79834819D02*
X152410715Y-79834819D01*
X152410715Y-79834819D02*
X152505953Y-79787200D01*
X152505953Y-79787200D02*
X152553572Y-79739580D01*
X153458334Y-79834819D02*
X153458334Y-78834819D01*
X153458334Y-79787200D02*
X153363096Y-79834819D01*
X153363096Y-79834819D02*
X153172620Y-79834819D01*
X153172620Y-79834819D02*
X153077382Y-79787200D01*
X153077382Y-79787200D02*
X153029763Y-79739580D01*
X153029763Y-79739580D02*
X152982144Y-79644342D01*
X152982144Y-79644342D02*
X152982144Y-79358628D01*
X152982144Y-79358628D02*
X153029763Y-79263390D01*
X153029763Y-79263390D02*
X153077382Y-79215771D01*
X153077382Y-79215771D02*
X153172620Y-79168152D01*
X153172620Y-79168152D02*
X153363096Y-79168152D01*
X153363096Y-79168152D02*
X153458334Y-79215771D01*
X153934525Y-79834819D02*
X153934525Y-79168152D01*
X153934525Y-78834819D02*
X153886906Y-78882438D01*
X153886906Y-78882438D02*
X153934525Y-78930057D01*
X153934525Y-78930057D02*
X153982144Y-78882438D01*
X153982144Y-78882438D02*
X153934525Y-78834819D01*
X153934525Y-78834819D02*
X153934525Y-78930057D01*
X154553572Y-79834819D02*
X154458334Y-79787200D01*
X154458334Y-79787200D02*
X154410715Y-79739580D01*
X154410715Y-79739580D02*
X154363096Y-79644342D01*
X154363096Y-79644342D02*
X154363096Y-79358628D01*
X154363096Y-79358628D02*
X154410715Y-79263390D01*
X154410715Y-79263390D02*
X154458334Y-79215771D01*
X154458334Y-79215771D02*
X154553572Y-79168152D01*
X154553572Y-79168152D02*
X154696429Y-79168152D01*
X154696429Y-79168152D02*
X154791667Y-79215771D01*
X154791667Y-79215771D02*
X154839286Y-79263390D01*
X154839286Y-79263390D02*
X154886905Y-79358628D01*
X154886905Y-79358628D02*
X154886905Y-79644342D01*
X154886905Y-79644342D02*
X154839286Y-79739580D01*
X154839286Y-79739580D02*
X154791667Y-79787200D01*
X154791667Y-79787200D02*
X154696429Y-79834819D01*
X154696429Y-79834819D02*
X154553572Y-79834819D01*
X159639167Y-118898200D02*
X159782024Y-118945819D01*
X159782024Y-118945819D02*
X160020119Y-118945819D01*
X160020119Y-118945819D02*
X160115357Y-118898200D01*
X160115357Y-118898200D02*
X160162976Y-118850580D01*
X160162976Y-118850580D02*
X160210595Y-118755342D01*
X160210595Y-118755342D02*
X160210595Y-118660104D01*
X160210595Y-118660104D02*
X160162976Y-118564866D01*
X160162976Y-118564866D02*
X160115357Y-118517247D01*
X160115357Y-118517247D02*
X160020119Y-118469628D01*
X160020119Y-118469628D02*
X159829643Y-118422009D01*
X159829643Y-118422009D02*
X159734405Y-118374390D01*
X159734405Y-118374390D02*
X159686786Y-118326771D01*
X159686786Y-118326771D02*
X159639167Y-118231533D01*
X159639167Y-118231533D02*
X159639167Y-118136295D01*
X159639167Y-118136295D02*
X159686786Y-118041057D01*
X159686786Y-118041057D02*
X159734405Y-117993438D01*
X159734405Y-117993438D02*
X159829643Y-117945819D01*
X159829643Y-117945819D02*
X160067738Y-117945819D01*
X160067738Y-117945819D02*
X160210595Y-117993438D01*
X160543929Y-117945819D02*
X160782024Y-118945819D01*
X160782024Y-118945819D02*
X160972500Y-118231533D01*
X160972500Y-118231533D02*
X161162976Y-118945819D01*
X161162976Y-118945819D02*
X161401072Y-117945819D01*
X162210595Y-118279152D02*
X162210595Y-118945819D01*
X161972500Y-117898200D02*
X161734405Y-118612485D01*
X161734405Y-118612485D02*
X162353452Y-118612485D01*
D27*
%TO.C,SW3*%
X133350000Y-119538750D02*
X147320000Y-119538750D01*
X133350000Y-133508750D02*
X133350000Y-119538750D01*
X147320000Y-119538750D02*
X147320000Y-133508750D01*
X147320000Y-133508750D02*
X133350000Y-133508750D01*
%TO.C,SW2*%
X152558750Y-100171250D02*
X166528750Y-100171250D01*
X152558750Y-114141250D02*
X152558750Y-100171250D01*
X166528750Y-100171250D02*
X166528750Y-114141250D01*
X166528750Y-114141250D02*
X152558750Y-114141250D01*
%TO.C,SW1*%
X133191250Y-100171250D02*
X147161250Y-100171250D01*
X133191250Y-114141250D02*
X133191250Y-100171250D01*
X147161250Y-100171250D02*
X147161250Y-114141250D01*
X147161250Y-114141250D02*
X133191250Y-114141250D01*
D28*
%TO.C,U1*%
X141225000Y-72380000D02*
X141225000Y-89380000D01*
X143225000Y-91380000D02*
X157025000Y-91380000D01*
X145625000Y-68955970D02*
X154625000Y-68955970D01*
X145625000Y-76309270D02*
X145625000Y-68955970D01*
X154625000Y-68955970D02*
X154625000Y-76309270D01*
X154625000Y-76309270D02*
X145625000Y-76309270D01*
X157025000Y-70380910D02*
X143225000Y-70380910D01*
X159025000Y-89380000D02*
X159025000Y-72380000D01*
D27*
X141225000Y-72380000D02*
G75*
G02*
X143225000Y-70380000I2044612J-44612D01*
G01*
X143225000Y-91380000D02*
G75*
G02*
X141225000Y-89380000I44857J2044857D01*
G01*
X157025000Y-70380000D02*
G75*
G02*
X159025000Y-72380000I-44610J-2044610D01*
G01*
X159025000Y-89380000D02*
G75*
G02*
X157025000Y-91380000I-2000000J0D01*
G01*
D29*
X139252000Y-72080000D02*
G75*
G02*
X138998000Y-72080000I-127000J0D01*
G01*
X138998000Y-72080000D02*
G75*
G02*
X139252000Y-72080000I127000J0D01*
G01*
D30*
X141237285Y-72318295D02*
X141240333Y-72269527D01*
X141244397Y-72220506D01*
X141237285Y-72318295D01*
X159012713Y-89450850D02*
X159009665Y-89499618D01*
X159005601Y-89548639D01*
X159000268Y-89597407D01*
X158993664Y-89646175D01*
X158986044Y-89694690D01*
X158977153Y-89742950D01*
X158967248Y-89790955D01*
X159014492Y-89401574D01*
X159012713Y-89450850D01*
D27*
%TO.C,SW4*%
X153987500Y-119380000D02*
X167957500Y-119380000D01*
X153987500Y-133350000D02*
X153987500Y-119380000D01*
X167957500Y-119380000D02*
X167957500Y-133350000D01*
X167957500Y-133350000D02*
X153987500Y-133350000D01*
%TD*%
M02*
